<?xml version="1.0" encoding="UTF-8"?>
<!-- Generator: Adobe Illustrator 27.7.0, SVG Export Plug-In . SVG Version: 6.00 Build 0)  -->
<svg xmlns:inkscape="http://www.inkscape.org/namespaces/inkscape" xmlns:svg="http://www.w3.org/2000/svg" xmlns:sodipodi="http://sodipodi.sourceforge.net/DTD/sodipodi-0.dtd" xmlns="http://www.w3.org/2000/svg" xmlns:xlink="http://www.w3.org/1999/xlink" version="1.1" id="svg2" sodipodi:docname="Clickr_RGB.ai" x="0px" y="0px" viewBox="0 0 992.9 385.8" style="enable-background:new 0 0 992.9 385.8;" xml:space="preserve">
<style type="text/css">
	.st0{fill:#E6E6E6;}
</style>

<g id="g24">
	<g id="g30" transform="translate(187.2783,227.7874)">
		<path id="path32" class="st0" d="M-3.9,1.1C-10.1,21.7-25,34-43.8,34c-25.3,0-42.9-22.3-42.9-54.2c0-31,17.2-54.2,42.9-54.2    c17,0,30.9,10.1,38.1,27.7l1.5,3.6l39.6-20.3c0,0-1.8-6.2-5.3-12.3C25.5-84.1,19-91,11.4-96.6s-16.3-9.8-26-12.5    c-9.6-2.7-19.7-4.1-30.1-4.1c-14.2,0-27.1,2.4-38.1,7.2c-11.1,4.7-20.7,11.5-28.4,20s-13.6,18.7-17.6,30.4    c-3.9,11.6-5.9,24.4-5.9,37.9c0,13.1,2.2,25.3,6.5,36.3s10.4,20.6,18.1,28.5s17.2,14.2,28.2,18.6s23.2,6.6,36.3,6.6    c23.3,0,42.7-6.2,57.6-18.5C26.5,42,35.5,24.8,39,2.6l0.6-4.1H-3.1L-3.9,1.1z"></path>
	</g>
	<g id="g34" transform="translate(744.863,313.2851)">
		<path id="path36" class="st0" d="M182-198.4c-3.5-0.3-6.8-0.5-10.6-0.5c-3.1,0-6.2,0.1-9.9,0.2c-7,0.2-12.6,1.1-17.8,2.8    c-5.7,1.8-11.1,4.4-16.1,7.7c-5,3.3-9.5,7.4-13.4,12c-1,1.2-2,2.5-2.9,3.8V-194H63v176.4h50.7v-79.6c0-8.2,0.9-13.8,2.3-19.7    c1.5-6.5,4.1-12.2,7.6-17.1c3.8-5.1,11.9-11.9,17.4-14.6c6.7-3.2,15.5-6.7,33.6-6.7c2.2,0,4.5,0,6.9,0.2l3.7,0.2V-198L182-198.4z"></path>
	</g>
	<g id="g38" transform="translate(636.065,309.9218)">
		<path id="path40" class="st0" d="M145.7-190.6H85.1l-56.5,58.9v-109.4l-50,25.7v201.2h50v-62l17.9-17.3l48.8,79.3h61.6L81.3-128    L145.7-190.6z"></path>
	</g>
	<g id="g42" transform="translate(460.4311,227.7874)">
		<path id="path44" class="st0" d="M87.2,1.1C81,21.7,66.1,34,47.3,34C22,34,4.4,11.7,4.4-20.2c0-31,17.2-54.2,42.9-54.2    c17,0,30.9,10.1,38.1,27.7l1.5,3.6l39.6-20.3c0,0-1.8-6.2-5.3-12.3c-4.6-8.4-11.1-15.3-18.7-20.9c-7.6-5.6-16.3-9.8-26-12.5    c-9.6-2.7-19.7-4.1-30.1-4.1c-14.2,0-27.1,2.4-38.1,7.2c-11.1,4.7-20.7,11.5-28.4,20s-13.6,18.7-17.6,30.4    c-3.9,11.6-5.9,24.4-5.9,37.9c0,13.1,2.2,25.3,6.5,36.3S-26.7,39.2-19,47.1S-1.8,61.3,9.2,65.7s23.2,6.6,36.3,6.6    c23.3,0,42.7-6.2,57.6-18.5c14.5-11.8,23.5-29,27-51.2l0.6-4.1H88L87.2,1.1z"></path>
	</g>
</g>
<path id="path14_00000154400418709708222990000018174080045827108997_" class="st0" d="M339.3,115h49.8V65.2h-49.8V115z"></path>
<path id="path16" class="st0" d="M339.3,295.7h49.8V128.9h-49.8V295.7z"></path>
<g id="g18" transform="translate(240.091,177.6457)">
	<path id="path20" class="st0" d="M13.7,118.1h49.8v-227.3L13.7-83.6V118.1z"></path>
</g>
</svg>
